# xmcd
#
# Track frame offsets:
# 150
# 15691
# 29587
# 44013
# 61651
# 77604
# 91662
# 105686
# 116363
# 131631
# 144511
# 158354
# 166770
# 179223
# 195643
# 219237
# 236098
# 251999
# 264837
# 276558
# 290588
# 306667
# 320919
#
# Disc length: 4439 seconds
#
# Revision: 2
# Processed by: cddbd v1.5.2PL0 Copyright (c) Steve Scherf et al.
# Submitted via: Axialis_AX_CDPlayer 2.6
#
DISCID=54115517
DTITLE=Hoyt Axton - A&M Years CD 1 (with complete tracklist)
DYEAR=1900
DGENRE=
TTITLE0=Sweet Misery
TTITLE1=Less Than The Song
TTITLE2=Sweet Fantasy
TTITLE3=Days Are Short
TTITLE4=Mary Makes Magic
TTITLE5=Peacemaker
TTITLE6=Nothin' To Lose
TTITLE7=Oklahoma Song
TTITLE8=Mexico City Hangover
TTITLE9=Hungry Man
TTITLE10=Somebody Turned On The Light
TTITLE11=Blue Prelude
TTITLE12=Maybelline
TTITLE13=Life Machine
TTITLE14=That's All Right
TTITLE15=Geronimo's Cadillac
TTITLE16=When The Morning Comes
TTITLE17=Good Lookin' Child
TTITLE18=Dream Of Highways
TTITLE19=Pet Parade
TTITLE20=Telephone Booth
TTITLE21=Boney Fingers
TTITLE22=Billy's Theme
EXTD=
EXTT0=
EXTT1=
EXTT2=
EXTT3=
EXTT4=
EXTT5=
EXTT6=
EXTT7=
EXTT8=
EXTT9=
EXTT10=
EXTT11=
EXTT12=
EXTT13=
EXTT14=
EXTT15=
EXTT16=
EXTT17=
EXTT18=
EXTT19=
EXTT20=
EXTT21=
EXTT22=
PLAYORDER=
